<?xml version="1.0" encoding="utf-8" standalone="no"?>
<!DOCTYPE svg PUBLIC "-//W3C//DTD SVG 1.1//EN"
  "http://www.w3.org/Graphics/SVG/1.1/DTD/svg11.dtd">
<svg xmlns:xlink="http://www.w3.org/1999/xlink" width="720pt" height="360pt" viewBox="0 0 720 360" xmlns="http://www.w3.org/2000/svg" version="1.1">
 <metadata>
  <rdf:RDF xmlns:dc="http://purl.org/dc/elements/1.1/" xmlns:cc="http://creativecommons.org/ns#" xmlns:rdf="http://www.w3.org/1999/02/22-rdf-syntax-ns#">
   <cc:Work>
    <dc:type rdf:resource="http://purl.org/dc/dcmitype/StillImage"/>
    <dc:date>2025-04-28T15:02:48.578218</dc:date>
    <dc:format>image/svg+xml</dc:format>
    <dc:creator>
     <cc:Agent>
      <dc:title>Matplotlib v3.9.1, https://matplotlib.org/</dc:title>
     </cc:Agent>
    </dc:creator>
   </cc:Work>
  </rdf:RDF>
 </metadata>
 <defs>
  <style type="text/css">*{stroke-linejoin: round; stroke-linecap: butt}</style>
 </defs>
 <g id="figure_1">
  <g id="patch_1">
   <path d="M 0 360 
L 720 360 
L 720 0 
L 0 0 
z
" style="fill: #ffffff"/>
  </g>
  <g id="axes_1">
   <g id="patch_2">
    <path d="M 90 320.4 
L 343.636364 320.4 
L 343.636364 43.2 
L 90 43.2 
z
" style="fill: #ffffff"/>
   </g>
   <g id="matplotlib.axis_1">
    <g id="xtick_1">
     <g id="line2d_1">
      <defs>
       <path id="mf161747786" d="M 0 0 
L 0 3.5 
" style="stroke: #000000; stroke-width: 0.8"/>
      </defs>
      <g>
       <use xlink:href="#mf161747786" x="95.994817" y="320.4" style="stroke: #000000; stroke-width: 0.8"/>
      </g>
     </g>
     <g id="text_1">
      <!-- −25000 -->
      <g transform="translate(75.898723 334.998438) scale(0.1 -0.1)">
       <defs>
        <path id="DejaVuSans-2212" d="M 678 2272 
L 4684 2272 
L 4684 1741 
L 678 1741 
L 678 2272 
z
" transform="scale(0.015625)"/>
        <path id="DejaVuSans-32" d="M 1228 531 
L 3431 531 
L 3431 0 
L 469 0 
L 469 531 
Q 828 903 1448 1529 
Q 2069 2156 2228 2338 
Q 2531 2678 2651 2914 
Q 2772 3150 2772 3378 
Q 2772 3750 2511 3984 
Q 2250 4219 1831 4219 
Q 1534 4219 1204 4116 
Q 875 4013 500 3803 
L 500 4441 
Q 881 4594 1212 4672 
Q 1544 4750 1819 4750 
Q 2544 4750 2975 4387 
Q 3406 4025 3406 3419 
Q 3406 3131 3298 2873 
Q 3191 2616 2906 2266 
Q 2828 2175 2409 1742 
Q 1991 1309 1228 531 
z
" transform="scale(0.015625)"/>
        <path id="DejaVuSans-35" d="M 691 4666 
L 3169 4666 
L 3169 4134 
L 1269 4134 
L 1269 2991 
Q 1406 3038 1543 3061 
Q 1681 3084 1819 3084 
Q 2600 3084 3056 2656 
Q 3513 2228 3513 1497 
Q 3513 744 3044 326 
Q 2575 -91 1722 -91 
Q 1428 -91 1123 -41 
Q 819 9 494 109 
L 494 744 
Q 775 591 1075 516 
Q 1375 441 1709 441 
Q 2250 441 2565 725 
Q 2881 1009 2881 1497 
Q 2881 1984 2565 2268 
Q 2250 2553 1709 2553 
Q 1456 2553 1204 2497 
Q 953 2441 691 2322 
L 691 4666 
z
" transform="scale(0.015625)"/>
        <path id="DejaVuSans-30" d="M 2034 4250 
Q 1547 4250 1301 3770 
Q 1056 3291 1056 2328 
Q 1056 1369 1301 889 
Q 1547 409 2034 409 
Q 2525 409 2770 889 
Q 3016 1369 3016 2328 
Q 3016 3291 2770 3770 
Q 2525 4250 2034 4250 
z
M 2034 4750 
Q 2819 4750 3233 4129 
Q 3647 3509 3647 2328 
Q 3647 1150 3233 529 
Q 2819 -91 2034 -91 
Q 1250 -91 836 529 
Q 422 1150 422 2328 
Q 422 3509 836 4129 
Q 1250 4750 2034 4750 
z
" transform="scale(0.015625)"/>
       </defs>
       <use xlink:href="#DejaVuSans-2212"/>
       <use xlink:href="#DejaVuSans-32" x="83.789062"/>
       <use xlink:href="#DejaVuSans-35" x="147.412109"/>
       <use xlink:href="#DejaVuSans-30" x="211.035156"/>
       <use xlink:href="#DejaVuSans-30" x="274.658203"/>
       <use xlink:href="#DejaVuSans-30" x="338.28125"/>
      </g>
     </g>
    </g>
    <g id="xtick_2">
     <g id="line2d_2">
      <g>
       <use xlink:href="#mf161747786" x="134.621212" y="320.4" style="stroke: #000000; stroke-width: 0.8"/>
      </g>
     </g>
     <g id="text_2">
      <!-- −20000 -->
      <g transform="translate(114.525118 334.998438) scale(0.1 -0.1)">
       <use xlink:href="#DejaVuSans-2212"/>
       <use xlink:href="#DejaVuSans-32" x="83.789062"/>
       <use xlink:href="#DejaVuSans-30" x="147.412109"/>
       <use xlink:href="#DejaVuSans-30" x="211.035156"/>
       <use xlink:href="#DejaVuSans-30" x="274.658203"/>
       <use xlink:href="#DejaVuSans-30" x="338.28125"/>
      </g>
     </g>
    </g>
    <g id="xtick_3">
     <g id="line2d_3">
      <g>
       <use xlink:href="#mf161747786" x="173.247608" y="320.4" style="stroke: #000000; stroke-width: 0.8"/>
      </g>
     </g>
     <g id="text_3">
      <!-- −15000 -->
      <g transform="translate(153.151514 334.998438) scale(0.1 -0.1)">
       <defs>
        <path id="DejaVuSans-31" d="M 794 531 
L 1825 531 
L 1825 4091 
L 703 3866 
L 703 4441 
L 1819 4666 
L 2450 4666 
L 2450 531 
L 3481 531 
L 3481 0 
L 794 0 
L 794 531 
z
" transform="scale(0.015625)"/>
       </defs>
       <use xlink:href="#DejaVuSans-2212"/>
       <use xlink:href="#DejaVuSans-31" x="83.789062"/>
       <use xlink:href="#DejaVuSans-35" x="147.412109"/>
       <use xlink:href="#DejaVuSans-30" x="211.035156"/>
       <use xlink:href="#DejaVuSans-30" x="274.658203"/>
       <use xlink:href="#DejaVuSans-30" x="338.28125"/>
      </g>
     </g>
    </g>
    <g id="xtick_4">
     <g id="line2d_4">
      <g>
       <use xlink:href="#mf161747786" x="211.874003" y="320.4" style="stroke: #000000; stroke-width: 0.8"/>
      </g>
     </g>
     <g id="text_4">
      <!-- −10000 -->
      <g transform="translate(191.777909 334.998438) scale(0.1 -0.1)">
       <use xlink:href="#DejaVuSans-2212"/>
       <use xlink:href="#DejaVuSans-31" x="83.789062"/>
       <use xlink:href="#DejaVuSans-30" x="147.412109"/>
       <use xlink:href="#DejaVuSans-30" x="211.035156"/>
       <use xlink:href="#DejaVuSans-30" x="274.658203"/>
       <use xlink:href="#DejaVuSans-30" x="338.28125"/>
      </g>
     </g>
    </g>
    <g id="xtick_5">
     <g id="line2d_5">
      <g>
       <use xlink:href="#mf161747786" x="250.500399" y="320.4" style="stroke: #000000; stroke-width: 0.8"/>
      </g>
     </g>
     <g id="text_5">
      <!-- −5000 -->
      <g transform="translate(233.585555 334.998438) scale(0.1 -0.1)">
       <use xlink:href="#DejaVuSans-2212"/>
       <use xlink:href="#DejaVuSans-35" x="83.789062"/>
       <use xlink:href="#DejaVuSans-30" x="147.412109"/>
       <use xlink:href="#DejaVuSans-30" x="211.035156"/>
       <use xlink:href="#DejaVuSans-30" x="274.658203"/>
      </g>
     </g>
    </g>
    <g id="xtick_6">
     <g id="line2d_6">
      <g>
       <use xlink:href="#mf161747786" x="289.126794" y="320.4" style="stroke: #000000; stroke-width: 0.8"/>
      </g>
     </g>
     <g id="text_6">
      <!-- 0 -->
      <g transform="translate(285.945544 334.998438) scale(0.1 -0.1)">
       <use xlink:href="#DejaVuSans-30"/>
      </g>
     </g>
    </g>
    <g id="xtick_7">
     <g id="line2d_7">
      <g>
       <use xlink:href="#mf161747786" x="327.75319" y="320.4" style="stroke: #000000; stroke-width: 0.8"/>
      </g>
     </g>
     <g id="text_7">
      <!-- 5000 -->
      <g transform="translate(315.02819 334.998438) scale(0.1 -0.1)">
       <use xlink:href="#DejaVuSans-35"/>
       <use xlink:href="#DejaVuSans-30" x="63.623047"/>
       <use xlink:href="#DejaVuSans-30" x="127.246094"/>
       <use xlink:href="#DejaVuSans-30" x="190.869141"/>
      </g>
     </g>
    </g>
    <g id="text_8">
     <!-- time -->
     <g transform="translate(203.262869 350.19625) scale(0.12 -0.12)">
      <defs>
       <path id="DejaVuSans-74" d="M 1172 4494 
L 1172 3500 
L 2356 3500 
L 2356 3053 
L 1172 3053 
L 1172 1153 
Q 1172 725 1289 603 
Q 1406 481 1766 481 
L 2356 481 
L 2356 0 
L 1766 0 
Q 1100 0 847 248 
Q 594 497 594 1153 
L 594 3053 
L 172 3053 
L 172 3500 
L 594 3500 
L 594 4494 
L 1172 4494 
z
" transform="scale(0.015625)"/>
       <path id="DejaVuSans-69" d="M 603 3500 
L 1178 3500 
L 1178 0 
L 603 0 
L 603 3500 
z
M 603 4863 
L 1178 4863 
L 1178 4134 
L 603 4134 
L 603 4863 
z
" transform="scale(0.015625)"/>
       <path id="DejaVuSans-6d" d="M 3328 2828 
Q 3544 3216 3844 3400 
Q 4144 3584 4550 3584 
Q 5097 3584 5394 3201 
Q 5691 2819 5691 2113 
L 5691 0 
L 5113 0 
L 5113 2094 
Q 5113 2597 4934 2840 
Q 4756 3084 4391 3084 
Q 3944 3084 3684 2787 
Q 3425 2491 3425 1978 
L 3425 0 
L 2847 0 
L 2847 2094 
Q 2847 2600 2669 2842 
Q 2491 3084 2119 3084 
Q 1678 3084 1418 2786 
Q 1159 2488 1159 1978 
L 1159 0 
L 581 0 
L 581 3500 
L 1159 3500 
L 1159 2956 
Q 1356 3278 1631 3431 
Q 1906 3584 2284 3584 
Q 2666 3584 2933 3390 
Q 3200 3197 3328 2828 
z
" transform="scale(0.015625)"/>
       <path id="DejaVuSans-65" d="M 3597 1894 
L 3597 1613 
L 953 1613 
Q 991 1019 1311 708 
Q 1631 397 2203 397 
Q 2534 397 2845 478 
Q 3156 559 3463 722 
L 3463 178 
Q 3153 47 2828 -22 
Q 2503 -91 2169 -91 
Q 1331 -91 842 396 
Q 353 884 353 1716 
Q 353 2575 817 3079 
Q 1281 3584 2069 3584 
Q 2775 3584 3186 3129 
Q 3597 2675 3597 1894 
z
M 3022 2063 
Q 3016 2534 2758 2815 
Q 2500 3097 2075 3097 
Q 1594 3097 1305 2825 
Q 1016 2553 972 2059 
L 3022 2063 
z
" transform="scale(0.015625)"/>
      </defs>
      <use xlink:href="#DejaVuSans-74"/>
      <use xlink:href="#DejaVuSans-69" x="39.208984"/>
      <use xlink:href="#DejaVuSans-6d" x="66.992188"/>
      <use xlink:href="#DejaVuSans-65" x="164.404297"/>
     </g>
    </g>
   </g>
   <g id="matplotlib.axis_2">
    <g id="ytick_1">
     <g id="line2d_8">
      <defs>
       <path id="mb7af1a9a2d" d="M 0 0 
L -3.5 0 
" style="stroke: #000000; stroke-width: 0.8"/>
      </defs>
      <g>
       <use xlink:href="#mb7af1a9a2d" x="90" y="298.654444" style="stroke: #000000; stroke-width: 0.8"/>
      </g>
     </g>
     <g id="text_9">
      <!-- 0 -->
      <g transform="translate(76.6375 302.453663) scale(0.1 -0.1)">
       <use xlink:href="#DejaVuSans-30"/>
      </g>
     </g>
    </g>
    <g id="ytick_2">
     <g id="line2d_9">
      <g>
       <use xlink:href="#mb7af1a9a2d" x="90" y="260.340994" style="stroke: #000000; stroke-width: 0.8"/>
      </g>
     </g>
     <g id="text_10">
      <!-- 50 -->
      <g transform="translate(70.275 264.140212) scale(0.1 -0.1)">
       <use xlink:href="#DejaVuSans-35"/>
       <use xlink:href="#DejaVuSans-30" x="63.623047"/>
      </g>
     </g>
    </g>
    <g id="ytick_3">
     <g id="line2d_10">
      <g>
       <use xlink:href="#mb7af1a9a2d" x="90" y="222.027543" style="stroke: #000000; stroke-width: 0.8"/>
      </g>
     </g>
     <g id="text_11">
      <!-- 100 -->
      <g transform="translate(63.9125 225.826762) scale(0.1 -0.1)">
       <use xlink:href="#DejaVuSans-31"/>
       <use xlink:href="#DejaVuSans-30" x="63.623047"/>
       <use xlink:href="#DejaVuSans-30" x="127.246094"/>
      </g>
     </g>
    </g>
    <g id="ytick_4">
     <g id="line2d_11">
      <g>
       <use xlink:href="#mb7af1a9a2d" x="90" y="183.714093" style="stroke: #000000; stroke-width: 0.8"/>
      </g>
     </g>
     <g id="text_12">
      <!-- 150 -->
      <g transform="translate(63.9125 187.513311) scale(0.1 -0.1)">
       <use xlink:href="#DejaVuSans-31"/>
       <use xlink:href="#DejaVuSans-35" x="63.623047"/>
       <use xlink:href="#DejaVuSans-30" x="127.246094"/>
      </g>
     </g>
    </g>
    <g id="ytick_5">
     <g id="line2d_12">
      <g>
       <use xlink:href="#mb7af1a9a2d" x="90" y="145.400642" style="stroke: #000000; stroke-width: 0.8"/>
      </g>
     </g>
     <g id="text_13">
      <!-- 200 -->
      <g transform="translate(63.9125 149.199861) scale(0.1 -0.1)">
       <use xlink:href="#DejaVuSans-32"/>
       <use xlink:href="#DejaVuSans-30" x="63.623047"/>
       <use xlink:href="#DejaVuSans-30" x="127.246094"/>
      </g>
     </g>
    </g>
    <g id="ytick_6">
     <g id="line2d_13">
      <g>
       <use xlink:href="#mb7af1a9a2d" x="90" y="107.087192" style="stroke: #000000; stroke-width: 0.8"/>
      </g>
     </g>
     <g id="text_14">
      <!-- 250 -->
      <g transform="translate(63.9125 110.88641) scale(0.1 -0.1)">
       <use xlink:href="#DejaVuSans-32"/>
       <use xlink:href="#DejaVuSans-35" x="63.623047"/>
       <use xlink:href="#DejaVuSans-30" x="127.246094"/>
      </g>
     </g>
    </g>
    <g id="ytick_7">
     <g id="line2d_14">
      <g>
       <use xlink:href="#mb7af1a9a2d" x="90" y="68.773741" style="stroke: #000000; stroke-width: 0.8"/>
      </g>
     </g>
     <g id="text_15">
      <!-- 300 -->
      <g transform="translate(63.9125 72.57296) scale(0.1 -0.1)">
       <defs>
        <path id="DejaVuSans-33" d="M 2597 2516 
Q 3050 2419 3304 2112 
Q 3559 1806 3559 1356 
Q 3559 666 3084 287 
Q 2609 -91 1734 -91 
Q 1441 -91 1130 -33 
Q 819 25 488 141 
L 488 750 
Q 750 597 1062 519 
Q 1375 441 1716 441 
Q 2309 441 2620 675 
Q 2931 909 2931 1356 
Q 2931 1769 2642 2001 
Q 2353 2234 1838 2234 
L 1294 2234 
L 1294 2753 
L 1863 2753 
Q 2328 2753 2575 2939 
Q 2822 3125 2822 3475 
Q 2822 3834 2567 4026 
Q 2313 4219 1838 4219 
Q 1578 4219 1281 4162 
Q 984 4106 628 3988 
L 628 4550 
Q 988 4650 1302 4700 
Q 1616 4750 1894 4750 
Q 2613 4750 3031 4423 
Q 3450 4097 3450 3541 
Q 3450 3153 3228 2886 
Q 3006 2619 2597 2516 
z
" transform="scale(0.015625)"/>
       </defs>
       <use xlink:href="#DejaVuSans-33"/>
       <use xlink:href="#DejaVuSans-30" x="63.623047"/>
       <use xlink:href="#DejaVuSans-30" x="127.246094"/>
      </g>
     </g>
    </g>
    <g id="text_16">
     <!-- KI__UGE -->
     <g transform="translate(57.083125 206.33625) rotate(-90) scale(0.12 -0.12)">
      <defs>
       <path id="DejaVuSans-4b" d="M 628 4666 
L 1259 4666 
L 1259 2694 
L 3353 4666 
L 4166 4666 
L 1850 2491 
L 4331 0 
L 3500 0 
L 1259 2247 
L 1259 0 
L 628 0 
L 628 4666 
z
" transform="scale(0.015625)"/>
       <path id="DejaVuSans-49" d="M 628 4666 
L 1259 4666 
L 1259 0 
L 628 0 
L 628 4666 
z
" transform="scale(0.015625)"/>
       <path id="DejaVuSans-5f" d="M 3263 -1063 
L 3263 -1509 
L -63 -1509 
L -63 -1063 
L 3263 -1063 
z
" transform="scale(0.015625)"/>
       <path id="DejaVuSans-55" d="M 556 4666 
L 1191 4666 
L 1191 1831 
Q 1191 1081 1462 751 
Q 1734 422 2344 422 
Q 2950 422 3222 751 
Q 3494 1081 3494 1831 
L 3494 4666 
L 4128 4666 
L 4128 1753 
Q 4128 841 3676 375 
Q 3225 -91 2344 -91 
Q 1459 -91 1007 375 
Q 556 841 556 1753 
L 556 4666 
z
" transform="scale(0.015625)"/>
       <path id="DejaVuSans-47" d="M 3809 666 
L 3809 1919 
L 2778 1919 
L 2778 2438 
L 4434 2438 
L 4434 434 
Q 4069 175 3628 42 
Q 3188 -91 2688 -91 
Q 1594 -91 976 548 
Q 359 1188 359 2328 
Q 359 3472 976 4111 
Q 1594 4750 2688 4750 
Q 3144 4750 3555 4637 
Q 3966 4525 4313 4306 
L 4313 3634 
Q 3963 3931 3569 4081 
Q 3175 4231 2741 4231 
Q 1884 4231 1454 3753 
Q 1025 3275 1025 2328 
Q 1025 1384 1454 906 
Q 1884 428 2741 428 
Q 3075 428 3337 486 
Q 3600 544 3809 666 
z
" transform="scale(0.015625)"/>
       <path id="DejaVuSans-45" d="M 628 4666 
L 3578 4666 
L 3578 4134 
L 1259 4134 
L 1259 2753 
L 3481 2753 
L 3481 2222 
L 1259 2222 
L 1259 531 
L 3634 531 
L 3634 0 
L 628 0 
L 628 4666 
z
" transform="scale(0.015625)"/>
      </defs>
      <use xlink:href="#DejaVuSans-4b"/>
      <use xlink:href="#DejaVuSans-49" x="65.576172"/>
      <use xlink:href="#DejaVuSans-5f" x="95.068359"/>
      <use xlink:href="#DejaVuSans-5f" x="145.068359"/>
      <use xlink:href="#DejaVuSans-55" x="195.068359"/>
      <use xlink:href="#DejaVuSans-47" x="268.261719"/>
      <use xlink:href="#DejaVuSans-45" x="345.751953"/>
     </g>
    </g>
   </g>
   <g id="LineCollection_1">
    <path d="M 111.136364 300.751596 
L 111.136364 296.557292 
" clip-path="url(#pd06a64aa54)" style="fill: none; stroke: #000000; stroke-width: 1.5"/>
    <path d="M 122.260766 261.903496 
L 122.260766 247.249802 
" clip-path="url(#pd06a64aa54)" style="fill: none; stroke: #000000; stroke-width: 1.5"/>
    <path d="M 133.385167 294.943487 
L 133.385167 185.952323 
" clip-path="url(#pd06a64aa54)" style="fill: none; stroke: #000000; stroke-width: 1.5"/>
    <path d="M 144.509569 262.867213 
L 144.509569 241.061491 
" clip-path="url(#pd06a64aa54)" style="fill: none; stroke: #000000; stroke-width: 1.5"/>
    <path d="M 155.633971 265.925105 
L 155.633971 239.353679 
" clip-path="url(#pd06a64aa54)" style="fill: none; stroke: #000000; stroke-width: 1.5"/>
    <path d="M 166.758373 267.108496 
L 166.758373 241.720815 
" clip-path="url(#pd06a64aa54)" style="fill: none; stroke: #000000; stroke-width: 1.5"/>
    <path d="M 177.882775 267.82475 
L 177.882775 246.756902 
" clip-path="url(#pd06a64aa54)" style="fill: none; stroke: #000000; stroke-width: 1.5"/>
    <path d="M 289.126794 263.023366 
L 289.126794 237.73498 
" clip-path="url(#pd06a64aa54)" style="fill: none; stroke: #000000; stroke-width: 1.5"/>
    <path d="M 300.251196 264.441649 
L 300.251196 142.436915 
" clip-path="url(#pd06a64aa54)" style="fill: none; stroke: #000000; stroke-width: 1.5"/>
    <path d="M 311.375598 297.012849 
L 311.375598 79.847435 
" clip-path="url(#pd06a64aa54)" style="fill: none; stroke: #000000; stroke-width: 1.5"/>
    <path d="M 322.5 307.8 
L 322.5 55.8 
" clip-path="url(#pd06a64aa54)" style="fill: none; stroke: #000000; stroke-width: 1.5"/>
   </g>
   <g id="line2d_15">
    <path d="M 111.136364 298.654444 
L 111.202052 298.545402 
L 111.447077 296.693585 
L 114.979779 268.623747 
L 117.507072 250.436323 
L 119.443997 237.932108 
L 121.251073 227.730451 
L 122.787283 220.394653 
L 124.18806 214.921759 
L 125.121912 211.966944 
L 125.588838 210.705136 
L 126.445511 208.769745 
L 127.302183 207.327919 
L 127.927596 206.58511 
L 128.553008 206.099769 
L 129.520401 205.837264 
L 133.385167 205.841754 
L 133.385167 298.654444 
L 133.495233 298.238643 
L 134.228742 292.242846 
L 136.929139 270.827738 
L 139.505379 252.047573 
L 141.463273 239.183928 
L 143.2745 228.710437 
L 144.509569 222.515304 
L 144.509569 298.654444 
L 144.61528 298.022182 
L 145.586674 290.015044 
L 148.441408 267.366214 
L 151.049765 248.308128 
L 153.158178 234.478052 
L 154.904109 224.436741 
L 155.633971 220.703024 
L 155.633971 298.654444 
L 155.739391 298.012527 
L 156.747868 289.695046 
L 159.608214 267.007806 
L 162.194234 248.106228 
L 164.143736 235.243936 
L 165.814376 225.466638 
L 166.758373 220.548497 
L 166.758373 298.654444 
L 166.864396 298.006367 
L 167.880444 289.625193 
L 170.76017 266.792305 
L 173.330644 248.013414 
L 175.297138 235.049678 
L 176.948963 225.392465 
L 177.882775 220.530228 
L 177.882775 298.654444 
L 177.989474 298.005017 
L 179.006603 289.615792 
L 181.888691 266.771985 
L 184.460968 247.992324 
L 186.427983 235.039032 
L 188.079702 225.397111 
L 189.007177 220.575238 
L 189.007177 298.654444 
L 189.114301 298.002489 
L 190.097952 289.889415 
L 192.975077 267.063814 
L 195.587184 247.983038 
L 197.622453 234.610115 
L 199.383205 224.436473 
L 200.131579 220.576513 
L 200.131579 298.654444 
L 200.240271 297.979961 
L 201.310751 289.144999 
L 204.207505 266.206407 
L 206.770433 247.514227 
L 208.75909 234.443944 
L 210.534704 224.168264 
L 211.255981 220.443287 
L 211.255981 298.654444 
L 211.363156 297.996518 
L 212.390348 289.52187 
L 215.264285 266.738544 
L 217.863177 247.763764 
L 219.920895 234.257915 
L 221.69481 224.03852 
L 222.380383 220.510047 
L 222.380383 298.654444 
L 222.487513 297.998552 
L 223.513258 289.536576 
L 226.383726 266.781621 
L 228.977097 247.84591 
L 231.012848 234.472256 
L 232.793421 224.195448 
L 233.504785 220.532817 
L 233.504785 298.654444 
L 233.612026 297.997192 
L 234.639286 289.522401 
L 237.513477 266.739169 
L 240.112201 247.768739 
L 242.167321 234.282284 
L 243.943862 224.050401 
L 244.629187 220.524701 
L 244.629187 298.654444 
L 244.736455 297.997726 
L 245.763424 289.525611 
L 248.636966 266.748379 
L 251.234475 247.787562 
L 253.284095 234.335391 
L 255.062607 224.088841 
L 255.753589 220.53423 
L 255.753589 298.654444 
L 255.860908 297.997276 
L 256.888492 289.520024 
L 259.763586 266.731262 
L 262.363257 247.756856 
L 264.42053 234.260695 
L 266.198028 224.029375 
L 266.87799 220.532754 
L 266.87799 298.654444 
L 266.985344 297.997365 
L 268.012987 289.51973 
L 270.888288 266.730002 
L 273.488095 247.75571 
L 275.545248 234.261541 
L 277.323308 224.028497 
L 278.002392 220.536914 
L 278.002392 298.654444 
L 278.109778 297.997206 
L 279.137713 289.517167 
L 282.01379 266.72185 
L 284.614627 247.741389 
L 286.675255 234.227675 
L 288.453124 224.000556 
L 289.126794 220.537538 
L 289.126794 298.654444 
L 289.230322 298.02581 
L 290.190804 290.106128 
L 293.064371 267.285922 
L 295.677375 248.169968 
L 297.701361 234.836341 
L 299.416448 224.866438 
L 300.845687 217.683619 
L 302.154218 212.129278 
L 303.462749 207.640796 
L 304.572916 204.71315 
L 305.246906 203.33886 
L 305.920896 202.269999 
L 306.594886 201.504189 
L 307.268875 201.036475 
L 308.34565 200.857186 
L 322.5 200.855728 
L 322.5 200.855728 
" clip-path="url(#pd06a64aa54)" style="fill: none; stroke: #0000ff; stroke-width: 1.5; stroke-linecap: square"/>
   </g>
   <g id="line2d_16">
    <path d="M 111.136364 298.654444 
L 122.260766 254.576649 
L 133.385167 240.447905 
L 144.509569 251.964352 
L 155.633971 252.639392 
L 166.758373 254.414655 
L 177.882775 257.290826 
L 289.126794 250.379173 
L 300.251196 203.439282 
L 311.375598 188.430142 
L 322.5 181.8 
" clip-path="url(#pd06a64aa54)" style="fill: none; stroke: #000000; stroke-width: 1.5; stroke-linecap: square"/>
    <defs>
     <path id="m2e1af03829" d="M -5 5 
L 5 5 
L 5 -5 
L -5 -5 
z
" style="stroke: #000000; stroke-linejoin: miter"/>
    </defs>
    <g clip-path="url(#pd06a64aa54)">
     <use xlink:href="#m2e1af03829" x="111.136364" y="298.654444" style="stroke: #000000; stroke-linejoin: miter"/>
     <use xlink:href="#m2e1af03829" x="122.260766" y="254.576649" style="stroke: #000000; stroke-linejoin: miter"/>
     <use xlink:href="#m2e1af03829" x="133.385167" y="240.447905" style="stroke: #000000; stroke-linejoin: miter"/>
     <use xlink:href="#m2e1af03829" x="144.509569" y="251.964352" style="stroke: #000000; stroke-linejoin: miter"/>
     <use xlink:href="#m2e1af03829" x="155.633971" y="252.639392" style="stroke: #000000; stroke-linejoin: miter"/>
     <use xlink:href="#m2e1af03829" x="166.758373" y="254.414655" style="stroke: #000000; stroke-linejoin: miter"/>
     <use xlink:href="#m2e1af03829" x="177.882775" y="257.290826" style="stroke: #000000; stroke-linejoin: miter"/>
     <use xlink:href="#m2e1af03829" x="289.126794" y="250.379173" style="stroke: #000000; stroke-linejoin: miter"/>
     <use xlink:href="#m2e1af03829" x="300.251196" y="203.439282" style="stroke: #000000; stroke-linejoin: miter"/>
     <use xlink:href="#m2e1af03829" x="311.375598" y="188.430142" style="stroke: #000000; stroke-linejoin: miter"/>
     <use xlink:href="#m2e1af03829" x="322.5" y="181.8" style="stroke: #000000; stroke-linejoin: miter"/>
    </g>
   </g>
   <g id="patch_3">
    <path d="M 90 320.4 
L 90 43.2 
" style="fill: none; stroke: #000000; stroke-width: 0.8; stroke-linejoin: miter; stroke-linecap: square"/>
   </g>
   <g id="patch_4">
    <path d="M 343.636364 320.4 
L 343.636364 43.2 
" style="fill: none; stroke: #000000; stroke-width: 0.8; stroke-linejoin: miter; stroke-linecap: square"/>
   </g>
   <g id="patch_5">
    <path d="M 90 320.4 
L 343.636364 320.4 
" style="fill: none; stroke: #000000; stroke-width: 0.8; stroke-linejoin: miter; stroke-linecap: square"/>
   </g>
   <g id="patch_6">
    <path d="M 90 43.2 
L 343.636364 43.2 
" style="fill: none; stroke: #000000; stroke-width: 0.8; stroke-linejoin: miter; stroke-linecap: square"/>
   </g>
   <g id="text_17">
    <!-- Iijima2015 task_po_can25_glucose_cumulative_amount -->
    <g transform="translate(22.495994 37.2) scale(0.14 -0.14)">
     <defs>
      <path id="DejaVuSans-6a" d="M 603 3500 
L 1178 3500 
L 1178 -63 
Q 1178 -731 923 -1031 
Q 669 -1331 103 -1331 
L -116 -1331 
L -116 -844 
L 38 -844 
Q 366 -844 484 -692 
Q 603 -541 603 -63 
L 603 3500 
z
M 603 4863 
L 1178 4863 
L 1178 4134 
L 603 4134 
L 603 4863 
z
" transform="scale(0.015625)"/>
      <path id="DejaVuSans-61" d="M 2194 1759 
Q 1497 1759 1228 1600 
Q 959 1441 959 1056 
Q 959 750 1161 570 
Q 1363 391 1709 391 
Q 2188 391 2477 730 
Q 2766 1069 2766 1631 
L 2766 1759 
L 2194 1759 
z
M 3341 1997 
L 3341 0 
L 2766 0 
L 2766 531 
Q 2569 213 2275 61 
Q 1981 -91 1556 -91 
Q 1019 -91 701 211 
Q 384 513 384 1019 
Q 384 1609 779 1909 
Q 1175 2209 1959 2209 
L 2766 2209 
L 2766 2266 
Q 2766 2663 2505 2880 
Q 2244 3097 1772 3097 
Q 1472 3097 1187 3025 
Q 903 2953 641 2809 
L 641 3341 
Q 956 3463 1253 3523 
Q 1550 3584 1831 3584 
Q 2591 3584 2966 3190 
Q 3341 2797 3341 1997 
z
" transform="scale(0.015625)"/>
      <path id="DejaVuSans-20" transform="scale(0.015625)"/>
      <path id="DejaVuSans-73" d="M 2834 3397 
L 2834 2853 
Q 2591 2978 2328 3040 
Q 2066 3103 1784 3103 
Q 1356 3103 1142 2972 
Q 928 2841 928 2578 
Q 928 2378 1081 2264 
Q 1234 2150 1697 2047 
L 1894 2003 
Q 2506 1872 2764 1633 
Q 3022 1394 3022 966 
Q 3022 478 2636 193 
Q 2250 -91 1575 -91 
Q 1294 -91 989 -36 
Q 684 19 347 128 
L 347 722 
Q 666 556 975 473 
Q 1284 391 1588 391 
Q 1994 391 2212 530 
Q 2431 669 2431 922 
Q 2431 1156 2273 1281 
Q 2116 1406 1581 1522 
L 1381 1569 
Q 847 1681 609 1914 
Q 372 2147 372 2553 
Q 372 3047 722 3315 
Q 1072 3584 1716 3584 
Q 2034 3584 2315 3537 
Q 2597 3491 2834 3397 
z
" transform="scale(0.015625)"/>
      <path id="DejaVuSans-6b" d="M 581 4863 
L 1159 4863 
L 1159 1991 
L 2875 3500 
L 3609 3500 
L 1753 1863 
L 3688 0 
L 2938 0 
L 1159 1709 
L 1159 0 
L 581 0 
L 581 4863 
z
" transform="scale(0.015625)"/>
      <path id="DejaVuSans-70" d="M 1159 525 
L 1159 -1331 
L 581 -1331 
L 581 3500 
L 1159 3500 
L 1159 2969 
Q 1341 3281 1617 3432 
Q 1894 3584 2278 3584 
Q 2916 3584 3314 3078 
Q 3713 2572 3713 1747 
Q 3713 922 3314 415 
Q 2916 -91 2278 -91 
Q 1894 -91 1617 61 
Q 1341 213 1159 525 
z
M 3116 1747 
Q 3116 2381 2855 2742 
Q 2594 3103 2138 3103 
Q 1681 3103 1420 2742 
Q 1159 2381 1159 1747 
Q 1159 1113 1420 752 
Q 1681 391 2138 391 
Q 2594 391 2855 752 
Q 3116 1113 3116 1747 
z
" transform="scale(0.015625)"/>
      <path id="DejaVuSans-6f" d="M 1959 3097 
Q 1497 3097 1228 2736 
Q 959 2375 959 1747 
Q 959 1119 1226 758 
Q 1494 397 1959 397 
Q 2419 397 2687 759 
Q 2956 1122 2956 1747 
Q 2956 2369 2687 2733 
Q 2419 3097 1959 3097 
z
M 1959 3584 
Q 2709 3584 3137 3096 
Q 3566 2609 3566 1747 
Q 3566 888 3137 398 
Q 2709 -91 1959 -91 
Q 1206 -91 779 398 
Q 353 888 353 1747 
Q 353 2609 779 3096 
Q 1206 3584 1959 3584 
z
" transform="scale(0.015625)"/>
      <path id="DejaVuSans-63" d="M 3122 3366 
L 3122 2828 
Q 2878 2963 2633 3030 
Q 2388 3097 2138 3097 
Q 1578 3097 1268 2742 
Q 959 2388 959 1747 
Q 959 1106 1268 751 
Q 1578 397 2138 397 
Q 2388 397 2633 464 
Q 2878 531 3122 666 
L 3122 134 
Q 2881 22 2623 -34 
Q 2366 -91 2075 -91 
Q 1284 -91 818 406 
Q 353 903 353 1747 
Q 353 2603 823 3093 
Q 1294 3584 2113 3584 
Q 2378 3584 2631 3529 
Q 2884 3475 3122 3366 
z
" transform="scale(0.015625)"/>
      <path id="DejaVuSans-6e" d="M 3513 2113 
L 3513 0 
L 2938 0 
L 2938 2094 
Q 2938 2591 2744 2837 
Q 2550 3084 2163 3084 
Q 1697 3084 1428 2787 
Q 1159 2491 1159 1978 
L 1159 0 
L 581 0 
L 581 3500 
L 1159 3500 
L 1159 2956 
Q 1366 3272 1645 3428 
Q 1925 3584 2291 3584 
Q 2894 3584 3203 3211 
Q 3513 2838 3513 2113 
z
" transform="scale(0.015625)"/>
      <path id="DejaVuSans-67" d="M 2906 1791 
Q 2906 2416 2648 2759 
Q 2391 3103 1925 3103 
Q 1463 3103 1205 2759 
Q 947 2416 947 1791 
Q 947 1169 1205 825 
Q 1463 481 1925 481 
Q 2391 481 2648 825 
Q 2906 1169 2906 1791 
z
M 3481 434 
Q 3481 -459 3084 -895 
Q 2688 -1331 1869 -1331 
Q 1566 -1331 1297 -1286 
Q 1028 -1241 775 -1147 
L 775 -588 
Q 1028 -725 1275 -790 
Q 1522 -856 1778 -856 
Q 2344 -856 2625 -561 
Q 2906 -266 2906 331 
L 2906 616 
Q 2728 306 2450 153 
Q 2172 0 1784 0 
Q 1141 0 747 490 
Q 353 981 353 1791 
Q 353 2603 747 3093 
Q 1141 3584 1784 3584 
Q 2172 3584 2450 3431 
Q 2728 3278 2906 2969 
L 2906 3500 
L 3481 3500 
L 3481 434 
z
" transform="scale(0.015625)"/>
      <path id="DejaVuSans-6c" d="M 603 4863 
L 1178 4863 
L 1178 0 
L 603 0 
L 603 4863 
z
" transform="scale(0.015625)"/>
      <path id="DejaVuSans-75" d="M 544 1381 
L 544 3500 
L 1119 3500 
L 1119 1403 
Q 1119 906 1312 657 
Q 1506 409 1894 409 
Q 2359 409 2629 706 
Q 2900 1003 2900 1516 
L 2900 3500 
L 3475 3500 
L 3475 0 
L 2900 0 
L 2900 538 
Q 2691 219 2414 64 
Q 2138 -91 1772 -91 
Q 1169 -91 856 284 
Q 544 659 544 1381 
z
M 1991 3584 
L 1991 3584 
z
" transform="scale(0.015625)"/>
      <path id="DejaVuSans-76" d="M 191 3500 
L 800 3500 
L 1894 563 
L 2988 3500 
L 3597 3500 
L 2284 0 
L 1503 0 
L 191 3500 
z
" transform="scale(0.015625)"/>
     </defs>
     <use xlink:href="#DejaVuSans-49"/>
     <use xlink:href="#DejaVuSans-69" x="29.492188"/>
     <use xlink:href="#DejaVuSans-6a" x="57.275391"/>
     <use xlink:href="#DejaVuSans-69" x="85.058594"/>
     <use xlink:href="#DejaVuSans-6d" x="112.841797"/>
     <use xlink:href="#DejaVuSans-61" x="210.253906"/>
     <use xlink:href="#DejaVuSans-32" x="271.533203"/>
     <use xlink:href="#DejaVuSans-30" x="335.15625"/>
     <use xlink:href="#DejaVuSans-31" x="398.779297"/>
     <use xlink:href="#DejaVuSans-35" x="462.402344"/>
     <use xlink:href="#DejaVuSans-20" x="526.025391"/>
     <use xlink:href="#DejaVuSans-74" x="557.8125"/>
     <use xlink:href="#DejaVuSans-61" x="597.021484"/>
     <use xlink:href="#DejaVuSans-73" x="658.300781"/>
     <use xlink:href="#DejaVuSans-6b" x="710.400391"/>
     <use xlink:href="#DejaVuSans-5f" x="768.310547"/>
     <use xlink:href="#DejaVuSans-70" x="818.310547"/>
     <use xlink:href="#DejaVuSans-6f" x="881.787109"/>
     <use xlink:href="#DejaVuSans-5f" x="942.96875"/>
     <use xlink:href="#DejaVuSans-63" x="992.96875"/>
     <use xlink:href="#DejaVuSans-61" x="1047.949219"/>
     <use xlink:href="#DejaVuSans-6e" x="1109.228516"/>
     <use xlink:href="#DejaVuSans-32" x="1172.607422"/>
     <use xlink:href="#DejaVuSans-35" x="1236.230469"/>
     <use xlink:href="#DejaVuSans-5f" x="1299.853516"/>
     <use xlink:href="#DejaVuSans-67" x="1349.853516"/>
     <use xlink:href="#DejaVuSans-6c" x="1413.330078"/>
     <use xlink:href="#DejaVuSans-75" x="1441.113281"/>
     <use xlink:href="#DejaVuSans-63" x="1504.492188"/>
     <use xlink:href="#DejaVuSans-6f" x="1559.472656"/>
     <use xlink:href="#DejaVuSans-73" x="1620.654297"/>
     <use xlink:href="#DejaVuSans-65" x="1672.753906"/>
     <use xlink:href="#DejaVuSans-5f" x="1734.277344"/>
     <use xlink:href="#DejaVuSans-63" x="1784.277344"/>
     <use xlink:href="#DejaVuSans-75" x="1839.257812"/>
     <use xlink:href="#DejaVuSans-6d" x="1902.636719"/>
     <use xlink:href="#DejaVuSans-75" x="2000.048828"/>
     <use xlink:href="#DejaVuSans-6c" x="2063.427734"/>
     <use xlink:href="#DejaVuSans-61" x="2091.210938"/>
     <use xlink:href="#DejaVuSans-74" x="2152.490234"/>
     <use xlink:href="#DejaVuSans-69" x="2191.699219"/>
     <use xlink:href="#DejaVuSans-76" x="2219.482422"/>
     <use xlink:href="#DejaVuSans-65" x="2278.662109"/>
     <use xlink:href="#DejaVuSans-5f" x="2340.185547"/>
     <use xlink:href="#DejaVuSans-61" x="2390.185547"/>
     <use xlink:href="#DejaVuSans-6d" x="2451.464844"/>
     <use xlink:href="#DejaVuSans-6f" x="2548.876953"/>
     <use xlink:href="#DejaVuSans-75" x="2610.058594"/>
     <use xlink:href="#DejaVuSans-6e" x="2673.4375"/>
     <use xlink:href="#DejaVuSans-74" x="2736.816406"/>
    </g>
   </g>
   <g id="legend_1">
    <g id="patch_7">
     <path d="M 200.586364 80.834375 
L 336.636364 80.834375 
Q 338.636364 80.834375 338.636364 78.834375 
L 338.636364 50.2 
Q 338.636364 48.2 336.636364 48.2 
L 200.586364 48.2 
Q 198.586364 48.2 198.586364 50.2 
L 198.586364 78.834375 
Q 198.586364 80.834375 200.586364 80.834375 
z
" style="fill: #ffffff; opacity: 0.8; stroke: #cccccc; stroke-linejoin: miter"/>
    </g>
    <g id="line2d_17">
     <path d="M 202.586364 56.298437 
L 212.586364 56.298437 
L 222.586364 56.298437 
" style="fill: none; stroke: #0000ff; stroke-width: 1.5; stroke-linecap: square"/>
    </g>
    <g id="text_18">
     <!-- observable -->
     <g transform="translate(230.586364 59.798437) scale(0.1 -0.1)">
      <defs>
       <path id="DejaVuSans-62" d="M 3116 1747 
Q 3116 2381 2855 2742 
Q 2594 3103 2138 3103 
Q 1681 3103 1420 2742 
Q 1159 2381 1159 1747 
Q 1159 1113 1420 752 
Q 1681 391 2138 391 
Q 2594 391 2855 752 
Q 3116 1113 3116 1747 
z
M 1159 2969 
Q 1341 3281 1617 3432 
Q 1894 3584 2278 3584 
Q 2916 3584 3314 3078 
Q 3713 2572 3713 1747 
Q 3713 922 3314 415 
Q 2916 -91 2278 -91 
Q 1894 -91 1617 61 
Q 1341 213 1159 525 
L 1159 0 
L 581 0 
L 581 4863 
L 1159 4863 
L 1159 2969 
z
" transform="scale(0.015625)"/>
       <path id="DejaVuSans-72" d="M 2631 2963 
Q 2534 3019 2420 3045 
Q 2306 3072 2169 3072 
Q 1681 3072 1420 2755 
Q 1159 2438 1159 1844 
L 1159 0 
L 581 0 
L 581 3500 
L 1159 3500 
L 1159 2956 
Q 1341 3275 1631 3429 
Q 1922 3584 2338 3584 
Q 2397 3584 2469 3576 
Q 2541 3569 2628 3553 
L 2631 2963 
z
" transform="scale(0.015625)"/>
      </defs>
      <use xlink:href="#DejaVuSans-6f"/>
      <use xlink:href="#DejaVuSans-62" x="61.181641"/>
      <use xlink:href="#DejaVuSans-73" x="124.658203"/>
      <use xlink:href="#DejaVuSans-65" x="176.757812"/>
      <use xlink:href="#DejaVuSans-72" x="238.28125"/>
      <use xlink:href="#DejaVuSans-76" x="279.394531"/>
      <use xlink:href="#DejaVuSans-61" x="338.574219"/>
      <use xlink:href="#DejaVuSans-62" x="399.853516"/>
      <use xlink:href="#DejaVuSans-6c" x="463.330078"/>
      <use xlink:href="#DejaVuSans-65" x="491.113281"/>
     </g>
    </g>
    <g id="LineCollection_2">
     <path d="M 212.586364 75.976562 
L 212.586364 65.976562 
" style="fill: none; stroke: #000000; stroke-width: 1.5"/>
    </g>
    <g id="line2d_18">
     <path d="M 202.586364 70.976562 
L 222.586364 70.976562 
" style="fill: none; stroke: #000000; stroke-width: 1.5; stroke-linecap: square"/>
    </g>
    <g id="line2d_19">
     <g>
      <use xlink:href="#m2e1af03829" x="212.586364" y="70.976562" style="stroke: #000000; stroke-linejoin: miter"/>
     </g>
    </g>
    <g id="text_19">
     <!-- reference_data ± SD -->
     <g transform="translate(230.586364 74.476562) scale(0.1 -0.1)">
      <defs>
       <path id="DejaVuSans-66" d="M 2375 4863 
L 2375 4384 
L 1825 4384 
Q 1516 4384 1395 4259 
Q 1275 4134 1275 3809 
L 1275 3500 
L 2222 3500 
L 2222 3053 
L 1275 3053 
L 1275 0 
L 697 0 
L 697 3053 
L 147 3053 
L 147 3500 
L 697 3500 
L 697 3744 
Q 697 4328 969 4595 
Q 1241 4863 1831 4863 
L 2375 4863 
z
" transform="scale(0.015625)"/>
       <path id="DejaVuSans-64" d="M 2906 2969 
L 2906 4863 
L 3481 4863 
L 3481 0 
L 2906 0 
L 2906 525 
Q 2725 213 2448 61 
Q 2172 -91 1784 -91 
Q 1150 -91 751 415 
Q 353 922 353 1747 
Q 353 2572 751 3078 
Q 1150 3584 1784 3584 
Q 2172 3584 2448 3432 
Q 2725 3281 2906 2969 
z
M 947 1747 
Q 947 1113 1208 752 
Q 1469 391 1925 391 
Q 2381 391 2643 752 
Q 2906 1113 2906 1747 
Q 2906 2381 2643 2742 
Q 2381 3103 1925 3103 
Q 1469 3103 1208 2742 
Q 947 2381 947 1747 
z
" transform="scale(0.015625)"/>
       <path id="DejaVuSans-b1" d="M 2944 4013 
L 2944 2803 
L 4684 2803 
L 4684 2272 
L 2944 2272 
L 2944 1063 
L 2419 1063 
L 2419 2272 
L 678 2272 
L 678 2803 
L 2419 2803 
L 2419 4013 
L 2944 4013 
z
M 678 531 
L 4684 531 
L 4684 0 
L 678 0 
L 678 531 
z
" transform="scale(0.015625)"/>
       <path id="DejaVuSans-53" d="M 3425 4513 
L 3425 3897 
Q 3066 4069 2747 4153 
Q 2428 4238 2131 4238 
Q 1616 4238 1336 4038 
Q 1056 3838 1056 3469 
Q 1056 3159 1242 3001 
Q 1428 2844 1947 2747 
L 2328 2669 
Q 3034 2534 3370 2195 
Q 3706 1856 3706 1288 
Q 3706 609 3251 259 
Q 2797 -91 1919 -91 
Q 1588 -91 1214 -16 
Q 841 59 441 206 
L 441 856 
Q 825 641 1194 531 
Q 1563 422 1919 422 
Q 2459 422 2753 634 
Q 3047 847 3047 1241 
Q 3047 1584 2836 1778 
Q 2625 1972 2144 2069 
L 1759 2144 
Q 1053 2284 737 2584 
Q 422 2884 422 3419 
Q 422 4038 858 4394 
Q 1294 4750 2059 4750 
Q 2388 4750 2728 4690 
Q 3069 4631 3425 4513 
z
" transform="scale(0.015625)"/>
       <path id="DejaVuSans-44" d="M 1259 4147 
L 1259 519 
L 2022 519 
Q 2988 519 3436 956 
Q 3884 1394 3884 2338 
Q 3884 3275 3436 3711 
Q 2988 4147 2022 4147 
L 1259 4147 
z
M 628 4666 
L 1925 4666 
Q 3281 4666 3915 4102 
Q 4550 3538 4550 2338 
Q 4550 1131 3912 565 
Q 3275 0 1925 0 
L 628 0 
L 628 4666 
z
" transform="scale(0.015625)"/>
      </defs>
      <use xlink:href="#DejaVuSans-72"/>
      <use xlink:href="#DejaVuSans-65" x="38.863281"/>
      <use xlink:href="#DejaVuSans-66" x="100.386719"/>
      <use xlink:href="#DejaVuSans-65" x="135.591797"/>
      <use xlink:href="#DejaVuSans-72" x="197.115234"/>
      <use xlink:href="#DejaVuSans-65" x="235.978516"/>
      <use xlink:href="#DejaVuSans-6e" x="297.501953"/>
      <use xlink:href="#DejaVuSans-63" x="360.880859"/>
      <use xlink:href="#DejaVuSans-65" x="415.861328"/>
      <use xlink:href="#DejaVuSans-5f" x="477.384766"/>
      <use xlink:href="#DejaVuSans-64" x="527.384766"/>
      <use xlink:href="#DejaVuSans-61" x="590.861328"/>
      <use xlink:href="#DejaVuSans-74" x="652.140625"/>
      <use xlink:href="#DejaVuSans-61" x="691.349609"/>
      <use xlink:href="#DejaVuSans-20" x="752.628906"/>
      <use xlink:href="#DejaVuSans-b1" x="784.416016"/>
      <use xlink:href="#DejaVuSans-20" x="868.205078"/>
      <use xlink:href="#DejaVuSans-53" x="899.992188"/>
      <use xlink:href="#DejaVuSans-44" x="963.46875"/>
     </g>
    </g>
   </g>
  </g>
  <g id="axes_2">
   <g id="patch_8">
    <path d="M 394.363636 320.4 
L 648 320.4 
L 648 43.2 
L 394.363636 43.2 
z
" style="fill: #ffffff"/>
   </g>
   <g id="matplotlib.axis_3">
    <g id="xtick_8">
     <g id="line2d_20">
      <g>
       <use xlink:href="#mf161747786" x="400.358453" y="320.4" style="stroke: #000000; stroke-width: 0.8"/>
      </g>
     </g>
     <g id="text_20">
      <!-- −25000 -->
      <g transform="translate(380.262359 334.998438) scale(0.1 -0.1)">
       <use xlink:href="#DejaVuSans-2212"/>
       <use xlink:href="#DejaVuSans-32" x="83.789062"/>
       <use xlink:href="#DejaVuSans-35" x="147.412109"/>
       <use xlink:href="#DejaVuSans-30" x="211.035156"/>
       <use xlink:href="#DejaVuSans-30" x="274.658203"/>
       <use xlink:href="#DejaVuSans-30" x="338.28125"/>
      </g>
     </g>
    </g>
    <g id="xtick_9">
     <g id="line2d_21">
      <g>
       <use xlink:href="#mf161747786" x="438.984848" y="320.4" style="stroke: #000000; stroke-width: 0.8"/>
      </g>
     </g>
     <g id="text_21">
      <!-- −20000 -->
      <g transform="translate(418.888755 334.998438) scale(0.1 -0.1)">
       <use xlink:href="#DejaVuSans-2212"/>
       <use xlink:href="#DejaVuSans-32" x="83.789062"/>
       <use xlink:href="#DejaVuSans-30" x="147.412109"/>
       <use xlink:href="#DejaVuSans-30" x="211.035156"/>
       <use xlink:href="#DejaVuSans-30" x="274.658203"/>
       <use xlink:href="#DejaVuSans-30" x="338.28125"/>
      </g>
     </g>
    </g>
    <g id="xtick_10">
     <g id="line2d_22">
      <g>
       <use xlink:href="#mf161747786" x="477.611244" y="320.4" style="stroke: #000000; stroke-width: 0.8"/>
      </g>
     </g>
     <g id="text_22">
      <!-- −15000 -->
      <g transform="translate(457.51515 334.998438) scale(0.1 -0.1)">
       <use xlink:href="#DejaVuSans-2212"/>
       <use xlink:href="#DejaVuSans-31" x="83.789062"/>
       <use xlink:href="#DejaVuSans-35" x="147.412109"/>
       <use xlink:href="#DejaVuSans-30" x="211.035156"/>
       <use xlink:href="#DejaVuSans-30" x="274.658203"/>
       <use xlink:href="#DejaVuSans-30" x="338.28125"/>
      </g>
     </g>
    </g>
    <g id="xtick_11">
     <g id="line2d_23">
      <g>
       <use xlink:href="#mf161747786" x="516.23764" y="320.4" style="stroke: #000000; stroke-width: 0.8"/>
      </g>
     </g>
     <g id="text_23">
      <!-- −10000 -->
      <g transform="translate(496.141546 334.998438) scale(0.1 -0.1)">
       <use xlink:href="#DejaVuSans-2212"/>
       <use xlink:href="#DejaVuSans-31" x="83.789062"/>
       <use xlink:href="#DejaVuSans-30" x="147.412109"/>
       <use xlink:href="#DejaVuSans-30" x="211.035156"/>
       <use xlink:href="#DejaVuSans-30" x="274.658203"/>
       <use xlink:href="#DejaVuSans-30" x="338.28125"/>
      </g>
     </g>
    </g>
    <g id="xtick_12">
     <g id="line2d_24">
      <g>
       <use xlink:href="#mf161747786" x="554.864035" y="320.4" style="stroke: #000000; stroke-width: 0.8"/>
      </g>
     </g>
     <g id="text_24">
      <!-- −5000 -->
      <g transform="translate(537.949191 334.998438) scale(0.1 -0.1)">
       <use xlink:href="#DejaVuSans-2212"/>
       <use xlink:href="#DejaVuSans-35" x="83.789062"/>
       <use xlink:href="#DejaVuSans-30" x="147.412109"/>
       <use xlink:href="#DejaVuSans-30" x="211.035156"/>
       <use xlink:href="#DejaVuSans-30" x="274.658203"/>
      </g>
     </g>
    </g>
    <g id="xtick_13">
     <g id="line2d_25">
      <g>
       <use xlink:href="#mf161747786" x="593.490431" y="320.4" style="stroke: #000000; stroke-width: 0.8"/>
      </g>
     </g>
     <g id="text_25">
      <!-- 0 -->
      <g transform="translate(590.309181 334.998438) scale(0.1 -0.1)">
       <use xlink:href="#DejaVuSans-30"/>
      </g>
     </g>
    </g>
    <g id="xtick_14">
     <g id="line2d_26">
      <g>
       <use xlink:href="#mf161747786" x="632.116826" y="320.4" style="stroke: #000000; stroke-width: 0.8"/>
      </g>
     </g>
     <g id="text_26">
      <!-- 5000 -->
      <g transform="translate(619.391826 334.998438) scale(0.1 -0.1)">
       <use xlink:href="#DejaVuSans-35"/>
       <use xlink:href="#DejaVuSans-30" x="63.623047"/>
       <use xlink:href="#DejaVuSans-30" x="127.246094"/>
       <use xlink:href="#DejaVuSans-30" x="190.869141"/>
      </g>
     </g>
    </g>
    <g id="text_27">
     <!-- time -->
     <g transform="translate(507.626506 350.19625) scale(0.12 -0.12)">
      <use xlink:href="#DejaVuSans-74"/>
      <use xlink:href="#DejaVuSans-69" x="39.208984"/>
      <use xlink:href="#DejaVuSans-6d" x="66.992188"/>
      <use xlink:href="#DejaVuSans-65" x="164.404297"/>
     </g>
    </g>
   </g>
   <g id="matplotlib.axis_4">
    <g id="ytick_8">
     <g id="line2d_27">
      <g>
       <use xlink:href="#mb7af1a9a2d" x="394.363636" y="292.090608" style="stroke: #000000; stroke-width: 0.8"/>
      </g>
     </g>
     <g id="text_28">
      <!-- $\mathdefault{10^{-13}}$ -->
      <g transform="translate(359.463636 295.889826) scale(0.1 -0.1)">
       <use xlink:href="#DejaVuSans-31" transform="translate(0 0.765625)"/>
       <use xlink:href="#DejaVuSans-30" transform="translate(63.623047 0.765625)"/>
       <use xlink:href="#DejaVuSans-2212" transform="translate(128.203125 39.046875) scale(0.7)"/>
       <use xlink:href="#DejaVuSans-31" transform="translate(186.855469 39.046875) scale(0.7)"/>
       <use xlink:href="#DejaVuSans-33" transform="translate(231.391602 39.046875) scale(0.7)"/>
      </g>
     </g>
    </g>
    <g id="ytick_9">
     <g id="line2d_28">
      <g>
       <use xlink:href="#mb7af1a9a2d" x="394.363636" y="261.603395" style="stroke: #000000; stroke-width: 0.8"/>
      </g>
     </g>
     <g id="text_29">
      <!-- $\mathdefault{10^{-11}}$ -->
      <g transform="translate(359.463636 265.402613) scale(0.1 -0.1)">
       <use xlink:href="#DejaVuSans-31" transform="translate(0 0.684375)"/>
       <use xlink:href="#DejaVuSans-30" transform="translate(63.623047 0.684375)"/>
       <use xlink:href="#DejaVuSans-2212" transform="translate(128.203125 38.965625) scale(0.7)"/>
       <use xlink:href="#DejaVuSans-31" transform="translate(186.855469 38.965625) scale(0.7)"/>
       <use xlink:href="#DejaVuSans-31" transform="translate(231.391602 38.965625) scale(0.7)"/>
      </g>
     </g>
    </g>
    <g id="ytick_10">
     <g id="line2d_29">
      <g>
       <use xlink:href="#mb7af1a9a2d" x="394.363636" y="231.116182" style="stroke: #000000; stroke-width: 0.8"/>
      </g>
     </g>
     <g id="text_30">
      <!-- $\mathdefault{10^{-9}}$ -->
      <g transform="translate(363.863636 234.9154) scale(0.1 -0.1)">
       <defs>
        <path id="DejaVuSans-39" d="M 703 97 
L 703 672 
Q 941 559 1184 500 
Q 1428 441 1663 441 
Q 2288 441 2617 861 
Q 2947 1281 2994 2138 
Q 2813 1869 2534 1725 
Q 2256 1581 1919 1581 
Q 1219 1581 811 2004 
Q 403 2428 403 3163 
Q 403 3881 828 4315 
Q 1253 4750 1959 4750 
Q 2769 4750 3195 4129 
Q 3622 3509 3622 2328 
Q 3622 1225 3098 567 
Q 2575 -91 1691 -91 
Q 1453 -91 1209 -44 
Q 966 3 703 97 
z
M 1959 2075 
Q 2384 2075 2632 2365 
Q 2881 2656 2881 3163 
Q 2881 3666 2632 3958 
Q 2384 4250 1959 4250 
Q 1534 4250 1286 3958 
Q 1038 3666 1038 3163 
Q 1038 2656 1286 2365 
Q 1534 2075 1959 2075 
z
" transform="scale(0.015625)"/>
       </defs>
       <use xlink:href="#DejaVuSans-31" transform="translate(0 0.765625)"/>
       <use xlink:href="#DejaVuSans-30" transform="translate(63.623047 0.765625)"/>
       <use xlink:href="#DejaVuSans-2212" transform="translate(128.203125 39.046875) scale(0.7)"/>
       <use xlink:href="#DejaVuSans-39" transform="translate(186.855469 39.046875) scale(0.7)"/>
      </g>
     </g>
    </g>
    <g id="ytick_11">
     <g id="line2d_30">
      <g>
       <use xlink:href="#mb7af1a9a2d" x="394.363636" y="200.628969" style="stroke: #000000; stroke-width: 0.8"/>
      </g>
     </g>
     <g id="text_31">
      <!-- $\mathdefault{10^{-7}}$ -->
      <g transform="translate(363.863636 204.428187) scale(0.1 -0.1)">
       <defs>
        <path id="DejaVuSans-37" d="M 525 4666 
L 3525 4666 
L 3525 4397 
L 1831 0 
L 1172 0 
L 2766 4134 
L 525 4134 
L 525 4666 
z
" transform="scale(0.015625)"/>
       </defs>
       <use xlink:href="#DejaVuSans-31" transform="translate(0 0.684375)"/>
       <use xlink:href="#DejaVuSans-30" transform="translate(63.623047 0.684375)"/>
       <use xlink:href="#DejaVuSans-2212" transform="translate(128.203125 38.965625) scale(0.7)"/>
       <use xlink:href="#DejaVuSans-37" transform="translate(186.855469 38.965625) scale(0.7)"/>
      </g>
     </g>
    </g>
    <g id="ytick_12">
     <g id="line2d_31">
      <g>
       <use xlink:href="#mb7af1a9a2d" x="394.363636" y="170.141756" style="stroke: #000000; stroke-width: 0.8"/>
      </g>
     </g>
     <g id="text_32">
      <!-- $\mathdefault{10^{-5}}$ -->
      <g transform="translate(363.863636 173.940974) scale(0.1 -0.1)">
       <use xlink:href="#DejaVuSans-31" transform="translate(0 0.684375)"/>
       <use xlink:href="#DejaVuSans-30" transform="translate(63.623047 0.684375)"/>
       <use xlink:href="#DejaVuSans-2212" transform="translate(128.203125 38.965625) scale(0.7)"/>
       <use xlink:href="#DejaVuSans-35" transform="translate(186.855469 38.965625) scale(0.7)"/>
      </g>
     </g>
    </g>
    <g id="ytick_13">
     <g id="line2d_32">
      <g>
       <use xlink:href="#mb7af1a9a2d" x="394.363636" y="139.654543" style="stroke: #000000; stroke-width: 0.8"/>
      </g>
     </g>
     <g id="text_33">
      <!-- $\mathdefault{10^{-3}}$ -->
      <g transform="translate(363.863636 143.453761) scale(0.1 -0.1)">
       <use xlink:href="#DejaVuSans-31" transform="translate(0 0.765625)"/>
       <use xlink:href="#DejaVuSans-30" transform="translate(63.623047 0.765625)"/>
       <use xlink:href="#DejaVuSans-2212" transform="translate(128.203125 39.046875) scale(0.7)"/>
       <use xlink:href="#DejaVuSans-33" transform="translate(186.855469 39.046875) scale(0.7)"/>
      </g>
     </g>
    </g>
    <g id="ytick_14">
     <g id="line2d_33">
      <g>
       <use xlink:href="#mb7af1a9a2d" x="394.363636" y="109.16733" style="stroke: #000000; stroke-width: 0.8"/>
      </g>
     </g>
     <g id="text_34">
      <!-- $\mathdefault{10^{-1}}$ -->
      <g transform="translate(363.863636 112.966548) scale(0.1 -0.1)">
       <use xlink:href="#DejaVuSans-31" transform="translate(0 0.684375)"/>
       <use xlink:href="#DejaVuSans-30" transform="translate(63.623047 0.684375)"/>
       <use xlink:href="#DejaVuSans-2212" transform="translate(128.203125 38.965625) scale(0.7)"/>
       <use xlink:href="#DejaVuSans-31" transform="translate(186.855469 38.965625) scale(0.7)"/>
      </g>
     </g>
    </g>
    <g id="ytick_15">
     <g id="line2d_34">
      <g>
       <use xlink:href="#mb7af1a9a2d" x="394.363636" y="78.680117" style="stroke: #000000; stroke-width: 0.8"/>
      </g>
     </g>
     <g id="text_35">
      <!-- $\mathdefault{10^{1}}$ -->
      <g transform="translate(369.763636 82.479335) scale(0.1 -0.1)">
       <use xlink:href="#DejaVuSans-31" transform="translate(0 0.684375)"/>
       <use xlink:href="#DejaVuSans-30" transform="translate(63.623047 0.684375)"/>
       <use xlink:href="#DejaVuSans-31" transform="translate(128.203125 38.965625) scale(0.7)"/>
      </g>
     </g>
    </g>
    <g id="ytick_16">
     <g id="line2d_35">
      <g>
       <use xlink:href="#mb7af1a9a2d" x="394.363636" y="48.192904" style="stroke: #000000; stroke-width: 0.8"/>
      </g>
     </g>
     <g id="text_36">
      <!-- $\mathdefault{10^{3}}$ -->
      <g transform="translate(369.763636 51.992122) scale(0.1 -0.1)">
       <use xlink:href="#DejaVuSans-31" transform="translate(0 0.765625)"/>
       <use xlink:href="#DejaVuSans-30" transform="translate(63.623047 0.765625)"/>
       <use xlink:href="#DejaVuSans-33" transform="translate(128.203125 39.046875) scale(0.7)"/>
      </g>
     </g>
    </g>
    <g id="text_37">
     <!-- KI__UGE -->
     <g transform="translate(352.634261 206.33625) rotate(-90) scale(0.12 -0.12)">
      <use xlink:href="#DejaVuSans-4b"/>
      <use xlink:href="#DejaVuSans-49" x="65.576172"/>
      <use xlink:href="#DejaVuSans-5f" x="95.068359"/>
      <use xlink:href="#DejaVuSans-5f" x="145.068359"/>
      <use xlink:href="#DejaVuSans-55" x="195.068359"/>
      <use xlink:href="#DejaVuSans-47" x="268.261719"/>
      <use xlink:href="#DejaVuSans-45" x="345.751953"/>
     </g>
    </g>
   </g>
   <g id="LineCollection_3">
    <path d="M 415.5 361 
L 415.5 87.258476 
" clip-path="url(#p65de8ebb15)" style="fill: none; stroke: #000000; stroke-width: 1.5"/>
    <path d="M 426.624402 68.300939 
L 426.624402 66.07943 
" clip-path="url(#p65de8ebb15)" style="fill: none; stroke: #000000; stroke-width: 1.5"/>
    <path d="M 437.748804 83.480257 
L 437.748804 60.882431 
" clip-path="url(#p65de8ebb15)" style="fill: none; stroke: #000000; stroke-width: 1.5"/>
    <path d="M 448.873206 68.476857 
L 448.873206 65.326899 
" clip-path="url(#p65de8ebb15)" style="fill: none; stroke: #000000; stroke-width: 1.5"/>
    <path d="M 459.997608 69.06817 
L 459.997608 65.133443 
" clip-path="url(#p65de8ebb15)" style="fill: none; stroke: #000000; stroke-width: 1.5"/>
    <path d="M 471.12201 69.31197 
L 471.12201 65.403124 
" clip-path="url(#p65de8ebb15)" style="fill: none; stroke: #000000; stroke-width: 1.5"/>
    <path d="M 482.246411 69.464016 
L 482.246411 66.016254 
" clip-path="url(#p65de8ebb15)" style="fill: none; stroke: #000000; stroke-width: 1.5"/>
    <path d="M 593.490431 68.505807 
L 593.490431 64.955157 
" clip-path="url(#p65de8ebb15)" style="fill: none; stroke: #000000; stroke-width: 1.5"/>
    <path d="M 604.614833 68.77471 
L 604.614833 58.720923 
" clip-path="url(#p65de8ebb15)" style="fill: none; stroke: #000000; stroke-width: 1.5"/>
    <path d="M 615.739234 88.879847 
L 615.739234 56.490304 
" clip-path="url(#p65de8ebb15)" style="fill: none; stroke: #000000; stroke-width: 1.5"/>
    <path d="M 626.863636 361 
L 626.863636 55.8 
" clip-path="url(#p65de8ebb15)" style="fill: none; stroke: #000000; stroke-width: 1.5"/>
   </g>
   <g id="line2d_36">
    <path d="M 415.529895 361 
L 415.633013 96.109247 
L 415.849082 86.716648 
L 416.174217 81.543916 
L 416.624286 77.849789 
L 417.194374 75.023787 
L 417.88448 72.740053 
L 418.694605 70.827005 
L 419.61791 69.198782 
L 420.619294 67.833532 
L 421.870709 66.503081 
L 423.205275 65.396411 
L 424.711171 64.422919 
L 426.217068 63.671239 
L 428.084771 62.984289 
L 429.952474 62.524163 
L 432.291232 62.22108 
L 435.193123 62.167655 
L 437.748804 62.167844 
L 437.748804 361 
M 437.771817 361 
L 437.875273 96.318274 
L 438.09037 86.798381 
L 438.406144 81.684668 
L 438.840691 78.025836 
L 439.399394 75.179944 
L 440.082252 72.865747 
L 440.889268 70.922356 
L 441.820439 69.255867 
L 442.906805 67.772269 
L 444.148367 66.460849 
L 445.485843 65.356621 
L 446.932828 64.419988 
L 448.578547 63.601651 
L 448.873206 63.478785 
L 448.873206 361 
M 448.873206 361 
L 448.978916 95.196321 
L 449.209659 86.146555 
L 449.546339 81.139052 
L 450.004173 77.553822 
L 450.569734 74.830904 
L 451.269952 72.556566 
L 452.077895 70.673731 
L 453.020496 69.028155 
L 454.124685 67.551225 
L 455.35172 66.273717 
L 456.699841 65.16893 
L 458.343788 64.122746 
L 459.997608 63.323055 
L 459.997608 361 
M 459.997608 361 
L 460.103028 95.095996 
L 460.328201 86.239452 
L 460.651219 81.326959 
L 461.111504 77.645113 
L 461.670423 74.915201 
L 462.360851 72.640596 
L 463.182789 70.705641 
L 464.136238 69.034056 
L 465.221197 67.576538 
L 466.458097 66.282194 
L 467.849929 65.141203 
L 469.407859 64.145961 
L 471.12201 63.309945 
L 471.12201 361 
M 471.12201 361 
L 471.228032 95.032769 
L 471.455165 86.176853 
L 471.780676 81.270032 
L 472.24408 77.593697 
L 472.806785 74.866555 
L 473.501892 72.593627 
L 474.329399 70.659844 
L 475.289308 68.989299 
L 476.381618 67.532919 
L 477.644052 66.224286 
L 479.00307 65.119046 
L 480.558305 64.129823 
L 482.246411 63.308397 
L 482.246411 361 
M 482.246411 361 
L 482.353111 95.018987 
L 482.580265 86.172913 
L 482.906455 81.261265 
L 483.37024 77.586808 
L 483.933406 74.860675 
L 484.629083 72.588446 
L 485.457269 70.655212 
L 486.417965 68.985157 
L 487.51117 67.529279 
L 488.774368 66.221477 
L 490.133874 65.117321 
L 491.689122 64.129553 
L 493.370813 63.312212 
L 493.370813 361 
M 493.370813 361 
L 493.477937 94.993269 
L 493.704253 86.184032 
L 494.021557 81.362006 
L 494.461588 77.790315 
L 495.037013 74.943498 
L 495.713984 72.698013 
L 496.526349 70.767428 
L 497.474108 69.089916 
L 498.557261 67.622339 
L 499.796338 66.316457 
L 501.120386 65.218315 
L 502.678146 64.20639 
L 504.495215 63.31232 
L 504.495215 361 
M 504.495215 361 
L 504.603907 94.768373 
L 504.836377 85.980893 
L 505.16914 81.098755 
L 505.640704 77.446819 
L 506.213319 74.731421 
L 506.920665 72.465364 
L 507.729062 70.602724 
L 508.672191 68.970333 
L 509.783736 67.494563 
L 511.032418 66.205557 
L 512.422769 65.080197 
L 513.955176 64.110429 
L 515.619617 63.301033 
L 515.619617 361 
M 515.619617 361 
L 515.726792 94.932913 
L 515.956692 86.086244 
L 516.286134 81.184712 
L 516.753985 77.518371 
L 517.322088 74.796187 
L 518.023864 72.526255 
L 518.859311 70.594549 
L 519.828429 68.925786 
L 520.931219 67.471278 
L 522.175686 66.192259 
L 523.579113 65.061736 
L 525.113639 64.09651 
L 526.744019 63.306687 
L 526.744019 361 
M 526.744019 361 
L 526.851149 94.953408 
L 527.080548 86.103561 
L 527.409609 81.197224 
L 527.876894 77.529041 
L 528.444312 74.806012 
L 529.145241 72.535624 
L 529.979679 70.603647 
L 530.947628 68.934693 
L 532.049087 67.480015 
L 533.289932 66.202741 
L 534.677486 65.081689 
L 536.21065 64.113264 
L 537.868421 63.308616 
L 537.868421 361 
M 537.868421 361 
L 537.975662 94.939699 
L 538.205459 86.090698 
L 538.535031 81.185605 
L 539.002923 77.518757 
L 539.571077 74.796381 
L 540.272914 72.526377 
L 541.108434 70.594659 
L 542.077638 68.925924 
L 543.180525 67.471474 
L 544.42475 66.192866 
L 545.826292 65.063834 
L 547.360709 64.098545 
L 548.992823 63.307928 
L 548.992823 361 
M 548.992823 361 
L 549.100091 94.945077 
L 549.329743 86.095578 
L 549.659275 81.188452 
L 550.12706 77.521084 
L 550.695086 74.798482 
L 551.396765 72.528367 
L 552.232097 70.596595 
L 553.201082 68.92783 
L 554.30372 67.473365 
L 555.547105 66.195257 
L 556.944695 65.0687 
L 558.478632 64.102805 
L 560.117225 63.308736 
L 560.117225 361 
M 560.117225 361 
L 560.224545 94.940546 
L 560.454338 86.091142 
L 560.78409 81.183993 
L 561.252129 77.517034 
L 561.820461 74.794641 
L 562.522519 72.524655 
L 563.358302 70.592975 
L 564.32781 68.924297 
L 565.431044 67.469927 
L 566.675775 66.191327 
L 568.078841 65.061705 
L 569.613599 64.096899 
L 571.241627 63.308611 
L 571.241627 361 
M 571.241627 361 
L 571.34898 94.941441 
L 571.578747 86.092031 
L 571.908551 81.18391 
L 572.376624 77.516821 
L 572.944997 74.794382 
L 573.647105 72.524382 
L 574.482949 70.592704 
L 575.452527 68.924039 
L 576.55584 67.469693 
L 577.800615 66.191171 
L 579.203591 65.061728 
L 580.738364 64.097008 
L 582.366029 63.308963 
L 582.366029 361 
M 582.366029 361 
L 582.473414 94.939843 
L 582.703233 86.090433 
L 583.033151 81.181955 
L 583.50135 77.514963 
L 584.069876 74.792584 
L 584.772174 72.522626 
L 585.608243 70.590984 
L 586.578083 68.922357 
L 587.681694 67.468059 
L 588.927096 66.189336 
L 590.332544 65.058552 
L 591.867782 64.094308 
L 593.490431 63.309016 
L 593.490431 361 
M 593.490431 361 
L 593.593959 95.23442 
L 593.826392 86.118292 
L 594.171299 81.039235 
L 594.636543 77.450993 
L 595.211256 74.72698 
L 595.895439 72.525834 
L 596.716458 70.623278 
L 597.674313 68.964882 
L 598.769005 67.511406 
L 599.978467 66.256298 
L 601.362823 65.126172 
L 602.922541 64.133153 
L 604.637628 63.299376 
L 606.517855 62.63224 
L 608.262563 62.207251 
L 610.284532 61.917855 
L 612.910678 61.821528 
L 626.863636 61.821421 
L 626.863636 61.821421 
" clip-path="url(#p65de8ebb15)" style="fill: none; stroke: #0000ff; stroke-width: 1.5; stroke-linecap: square"/>
   </g>
   <g id="line2d_37">
    <path d="M 426.410296 361 
L 426.624402 67.097436 
L 437.748804 65.256741 
L 448.873206 66.716272 
L 459.997608 66.812685 
L 471.12201 67.07315 
L 482.246411 67.51818 
L 593.490431 66.49524 
L 604.614833 61.998659 
L 615.739234 61.029604 
L 626.863636 60.642906 
" clip-path="url(#p65de8ebb15)" style="fill: none; stroke: #000000; stroke-width: 1.5; stroke-linecap: square"/>
    <g clip-path="url(#p65de8ebb15)">
     <use xlink:href="#m2e1af03829" x="415.5" y="15337.530214" style="stroke: #000000; stroke-linejoin: miter"/>
     <use xlink:href="#m2e1af03829" x="426.624402" y="67.097436" style="stroke: #000000; stroke-linejoin: miter"/>
     <use xlink:href="#m2e1af03829" x="437.748804" y="65.256741" style="stroke: #000000; stroke-linejoin: miter"/>
     <use xlink:href="#m2e1af03829" x="448.873206" y="66.716272" style="stroke: #000000; stroke-linejoin: miter"/>
     <use xlink:href="#m2e1af03829" x="459.997608" y="66.812685" style="stroke: #000000; stroke-linejoin: miter"/>
     <use xlink:href="#m2e1af03829" x="471.12201" y="67.07315" style="stroke: #000000; stroke-linejoin: miter"/>
     <use xlink:href="#m2e1af03829" x="482.246411" y="67.51818" style="stroke: #000000; stroke-linejoin: miter"/>
     <use xlink:href="#m2e1af03829" x="593.490431" y="66.49524" style="stroke: #000000; stroke-linejoin: miter"/>
     <use xlink:href="#m2e1af03829" x="604.614833" y="61.998659" style="stroke: #000000; stroke-linejoin: miter"/>
     <use xlink:href="#m2e1af03829" x="615.739234" y="61.029604" style="stroke: #000000; stroke-linejoin: miter"/>
     <use xlink:href="#m2e1af03829" x="626.863636" y="60.642906" style="stroke: #000000; stroke-linejoin: miter"/>
    </g>
   </g>
   <g id="patch_9">
    <path d="M 394.363636 320.4 
L 394.363636 43.2 
" style="fill: none; stroke: #000000; stroke-width: 0.8; stroke-linejoin: miter; stroke-linecap: square"/>
   </g>
   <g id="patch_10">
    <path d="M 648 320.4 
L 648 43.2 
" style="fill: none; stroke: #000000; stroke-width: 0.8; stroke-linejoin: miter; stroke-linecap: square"/>
   </g>
   <g id="patch_11">
    <path d="M 394.363636 320.4 
L 648 320.4 
" style="fill: none; stroke: #000000; stroke-width: 0.8; stroke-linejoin: miter; stroke-linecap: square"/>
   </g>
   <g id="patch_12">
    <path d="M 394.363636 43.2 
L 648 43.2 
" style="fill: none; stroke: #000000; stroke-width: 0.8; stroke-linejoin: miter; stroke-linecap: square"/>
   </g>
   <g id="text_38">
    <!-- Iijima2015 task_po_can25_glucose_cumulative_amount -->
    <g transform="translate(326.859631 37.2) scale(0.14 -0.14)">
     <use xlink:href="#DejaVuSans-49"/>
     <use xlink:href="#DejaVuSans-69" x="29.492188"/>
     <use xlink:href="#DejaVuSans-6a" x="57.275391"/>
     <use xlink:href="#DejaVuSans-69" x="85.058594"/>
     <use xlink:href="#DejaVuSans-6d" x="112.841797"/>
     <use xlink:href="#DejaVuSans-61" x="210.253906"/>
     <use xlink:href="#DejaVuSans-32" x="271.533203"/>
     <use xlink:href="#DejaVuSans-30" x="335.15625"/>
     <use xlink:href="#DejaVuSans-31" x="398.779297"/>
     <use xlink:href="#DejaVuSans-35" x="462.402344"/>
     <use xlink:href="#DejaVuSans-20" x="526.025391"/>
     <use xlink:href="#DejaVuSans-74" x="557.8125"/>
     <use xlink:href="#DejaVuSans-61" x="597.021484"/>
     <use xlink:href="#DejaVuSans-73" x="658.300781"/>
     <use xlink:href="#DejaVuSans-6b" x="710.400391"/>
     <use xlink:href="#DejaVuSans-5f" x="768.310547"/>
     <use xlink:href="#DejaVuSans-70" x="818.310547"/>
     <use xlink:href="#DejaVuSans-6f" x="881.787109"/>
     <use xlink:href="#DejaVuSans-5f" x="942.96875"/>
     <use xlink:href="#DejaVuSans-63" x="992.96875"/>
     <use xlink:href="#DejaVuSans-61" x="1047.949219"/>
     <use xlink:href="#DejaVuSans-6e" x="1109.228516"/>
     <use xlink:href="#DejaVuSans-32" x="1172.607422"/>
     <use xlink:href="#DejaVuSans-35" x="1236.230469"/>
     <use xlink:href="#DejaVuSans-5f" x="1299.853516"/>
     <use xlink:href="#DejaVuSans-67" x="1349.853516"/>
     <use xlink:href="#DejaVuSans-6c" x="1413.330078"/>
     <use xlink:href="#DejaVuSans-75" x="1441.113281"/>
     <use xlink:href="#DejaVuSans-63" x="1504.492188"/>
     <use xlink:href="#DejaVuSans-6f" x="1559.472656"/>
     <use xlink:href="#DejaVuSans-73" x="1620.654297"/>
     <use xlink:href="#DejaVuSans-65" x="1672.753906"/>
     <use xlink:href="#DejaVuSans-5f" x="1734.277344"/>
     <use xlink:href="#DejaVuSans-63" x="1784.277344"/>
     <use xlink:href="#DejaVuSans-75" x="1839.257812"/>
     <use xlink:href="#DejaVuSans-6d" x="1902.636719"/>
     <use xlink:href="#DejaVuSans-75" x="2000.048828"/>
     <use xlink:href="#DejaVuSans-6c" x="2063.427734"/>
     <use xlink:href="#DejaVuSans-61" x="2091.210938"/>
     <use xlink:href="#DejaVuSans-74" x="2152.490234"/>
     <use xlink:href="#DejaVuSans-69" x="2191.699219"/>
     <use xlink:href="#DejaVuSans-76" x="2219.482422"/>
     <use xlink:href="#DejaVuSans-65" x="2278.662109"/>
     <use xlink:href="#DejaVuSans-5f" x="2340.185547"/>
     <use xlink:href="#DejaVuSans-61" x="2390.185547"/>
     <use xlink:href="#DejaVuSans-6d" x="2451.464844"/>
     <use xlink:href="#DejaVuSans-6f" x="2548.876953"/>
     <use xlink:href="#DejaVuSans-75" x="2610.058594"/>
     <use xlink:href="#DejaVuSans-6e" x="2673.4375"/>
     <use xlink:href="#DejaVuSans-74" x="2736.816406"/>
    </g>
   </g>
   <g id="legend_2">
    <g id="patch_13">
     <path d="M 504.95 315.4 
L 641 315.4 
Q 643 315.4 643 313.4 
L 643 284.765625 
Q 643 282.765625 641 282.765625 
L 504.95 282.765625 
Q 502.95 282.765625 502.95 284.765625 
L 502.95 313.4 
Q 502.95 315.4 504.95 315.4 
z
" style="fill: #ffffff; opacity: 0.8; stroke: #cccccc; stroke-linejoin: miter"/>
    </g>
    <g id="line2d_38">
     <path d="M 506.95 290.864062 
L 516.95 290.864062 
L 526.95 290.864062 
" style="fill: none; stroke: #0000ff; stroke-width: 1.5; stroke-linecap: square"/>
    </g>
    <g id="text_39">
     <!-- observable -->
     <g transform="translate(534.95 294.364062) scale(0.1 -0.1)">
      <use xlink:href="#DejaVuSans-6f"/>
      <use xlink:href="#DejaVuSans-62" x="61.181641"/>
      <use xlink:href="#DejaVuSans-73" x="124.658203"/>
      <use xlink:href="#DejaVuSans-65" x="176.757812"/>
      <use xlink:href="#DejaVuSans-72" x="238.28125"/>
      <use xlink:href="#DejaVuSans-76" x="279.394531"/>
      <use xlink:href="#DejaVuSans-61" x="338.574219"/>
      <use xlink:href="#DejaVuSans-62" x="399.853516"/>
      <use xlink:href="#DejaVuSans-6c" x="463.330078"/>
      <use xlink:href="#DejaVuSans-65" x="491.113281"/>
     </g>
    </g>
    <g id="LineCollection_4">
     <path d="M 516.95 310.542188 
L 516.95 300.542188 
" style="fill: none; stroke: #000000; stroke-width: 1.5"/>
    </g>
    <g id="line2d_39">
     <path d="M 506.95 305.542188 
L 526.95 305.542188 
" style="fill: none; stroke: #000000; stroke-width: 1.5; stroke-linecap: square"/>
    </g>
    <g id="line2d_40">
     <g>
      <use xlink:href="#m2e1af03829" x="516.95" y="305.542188" style="stroke: #000000; stroke-linejoin: miter"/>
     </g>
    </g>
    <g id="text_40">
     <!-- reference_data ± SD -->
     <g transform="translate(534.95 309.042188) scale(0.1 -0.1)">
      <use xlink:href="#DejaVuSans-72"/>
      <use xlink:href="#DejaVuSans-65" x="38.863281"/>
      <use xlink:href="#DejaVuSans-66" x="100.386719"/>
      <use xlink:href="#DejaVuSans-65" x="135.591797"/>
      <use xlink:href="#DejaVuSans-72" x="197.115234"/>
      <use xlink:href="#DejaVuSans-65" x="235.978516"/>
      <use xlink:href="#DejaVuSans-6e" x="297.501953"/>
      <use xlink:href="#DejaVuSans-63" x="360.880859"/>
      <use xlink:href="#DejaVuSans-65" x="415.861328"/>
      <use xlink:href="#DejaVuSans-5f" x="477.384766"/>
      <use xlink:href="#DejaVuSans-64" x="527.384766"/>
      <use xlink:href="#DejaVuSans-61" x="590.861328"/>
      <use xlink:href="#DejaVuSans-74" x="652.140625"/>
      <use xlink:href="#DejaVuSans-61" x="691.349609"/>
      <use xlink:href="#DejaVuSans-20" x="752.628906"/>
      <use xlink:href="#DejaVuSans-b1" x="784.416016"/>
      <use xlink:href="#DejaVuSans-20" x="868.205078"/>
      <use xlink:href="#DejaVuSans-53" x="899.992188"/>
      <use xlink:href="#DejaVuSans-44" x="963.46875"/>
     </g>
    </g>
   </g>
  </g>
 </g>
 <defs>
  <clipPath id="pd06a64aa54">
   <rect x="90" y="43.2" width="253.636364" height="277.2"/>
  </clipPath>
  <clipPath id="p65de8ebb15">
   <rect x="394.363636" y="43.2" width="253.636364" height="277.2"/>
  </clipPath>
 </defs>
</svg>
